<svg version="1.1" id="Layer_1" xmlns="http://www.w3.org/2000/svg" xmlns:xlink="http://www.w3.org/1999/xlink" x="0px" y="0px"
	 width="100%" viewBox="0 0 496 496" enable-background="new 0 0 496 496" xml:space="preserve">
<path fill="#000000" opacity="1.000000" stroke="none" 
	d="
M394.542877,298.521301 
	C396.376282,304.307892 398.664703,309.477997 400.982056,314.647369 
	C406.230560,326.355377 403.972473,340.849060 395.733887,349.138550 
	C387.201874,357.723297 374.352203,357.506409 366.663025,348.168701 
	C357.946503,337.583435 357.219452,325.622437 362.885529,313.510071 
	C370.762756,296.670898 374.138672,279.177551 372.293396,260.168182 
	C366.861053,260.168182 361.434052,260.169220 356.007050,260.167938 
	C348.341309,260.166138 340.671295,260.322937 333.010925,260.118774 
	C323.676758,259.869965 317.573700,253.556580 317.657288,244.618057 
	C317.736877,236.111557 324.048676,230.016144 333.231445,229.884247 
	C342.728394,229.747849 352.228912,229.880997 361.727570,229.832352 
	C363.509064,229.823227 365.403381,230.267181 367.585785,228.688278 
	C364.414795,220.572159 360.800171,212.212845 364.888947,202.093109 
	C336.313904,205.088867 308.760010,207.513397 281.529816,209.100525 
	C280.412659,211.200577 281.447632,212.302322 281.850494,213.506287 
	C284.271362,220.741501 284.386902,227.880051 280.866852,234.824753 
	C273.868866,248.631134 272.900909,263.514191 272.909424,278.594940 
	C272.911285,281.892700 274.524170,282.881470 277.585297,282.852020 
	C287.083252,282.760529 296.585693,282.683716 306.080597,282.880219 
	C312.821289,283.019684 317.960205,286.073944 320.390320,292.617889 
	C322.632690,298.656403 321.294250,304.097168 316.863953,308.732086 
	C313.651001,312.093414 309.454407,313.087433 305.021729,313.151794 
	C298.190582,313.251038 291.356628,313.149750 284.524780,313.219818 
	C282.744843,313.238068 280.868073,312.823853 278.911438,314.024475 
	C279.214081,316.991821 280.664795,319.655579 282.073669,322.198517 
	C290.092407,336.671906 290.254303,350.365906 277.374756,363.923706 
	C344.385925,365.960785 410.301758,363.759888 476.265320,362.780792 
	C471.782684,366.056793 466.564911,366.196320 461.644287,367.116669 
	C430.915894,372.864136 400.005066,377.505280 368.950195,381.041443 
	C339.519897,384.392578 310.014160,386.893036 280.413666,388.471375 
	C247.616394,390.220184 214.823364,390.850433 182.013840,389.866608 
	C145.742035,388.778961 109.476494,387.215302 73.877556,379.248169 
	C63.307404,376.882507 52.863949,373.927521 43.639107,367.920441 
	C30.887392,359.616730 29.260172,349.248169 38.662239,337.153107 
	C43.711380,330.657745 50.254726,325.773346 56.555561,320.798981 
	C56.078484,319.239899 54.903507,319.543793 54.013973,319.276520 
	C40.477608,315.209991 34.079910,300.812256 40.333637,288.106873 
	C44.156540,280.340057 48.969456,272.878143 49.908833,264.109711 
	C51.758148,246.847549 53.184010,229.578232 44.078053,213.458572 
	C40.083183,206.386749 40.749908,202.196442 46.232964,190.674149 
	C43.970146,188.868332 41.547527,187.139526 39.359978,185.152023 
	C31.889273,178.364471 30.493422,170.232040 35.865849,161.818497 
	C43.817471,149.365753 55.806919,141.476425 68.290848,134.263184 
	C69.342979,133.655258 70.497467,133.489166 71.557701,134.507217 
	C72.247345,136.406723 70.716507,137.553253 69.900482,138.899261 
	C65.610687,145.975189 66.598236,151.748199 73.112221,156.809906 
	C78.450012,160.957642 84.585068,163.552460 90.949295,165.612793 
	C108.911064,171.427643 127.458244,174.414383 146.128525,176.648743 
	C184.839081,181.281433 223.731277,183.069702 262.683228,184.168930 
	C311.164703,185.537094 359.644196,184.906036 408.122742,184.551773 
	C428.264252,184.404602 448.398346,183.313629 468.538055,182.728638 
	C470.432709,182.673599 472.508636,182.099289 475.000763,184.087616 
	C468.206543,187.410965 460.914276,186.914673 454.644318,189.115707 
	C453.711090,190.503372 454.731903,191.208008 455.165100,192.025620 
	C458.894012,199.063492 459.125824,206.125397 456.382721,213.683548 
	C447.040894,239.422958 446.909485,265.152924 457.863159,290.480011 
	C461.625397,299.179077 462.980835,307.703217 458.961609,316.494965 
	C455.774933,323.465637 450.685181,328.083649 442.527130,328.342651 
	C434.243073,328.605591 429.170410,323.982239 425.746033,317.134552 
	C421.404449,308.452606 422.259216,299.828125 426.229279,291.171967 
	C436.840607,268.035522 437.100494,244.183914 430.629852,219.983612 
	C429.776276,216.791245 428.058685,213.840073 426.994202,210.691681 
	C425.103516,205.099472 426.142456,199.561386 428.207336,193.534378 
	C418.330109,194.910889 409.020020,196.153946 399.731628,197.541946 
	C397.478302,197.878677 397.425842,199.498108 398.159485,201.351288 
	C401.500977,209.792068 400.271881,217.778412 396.589142,225.949173 
	C392.376312,235.296097 391.153412,245.490601 390.575745,255.638962 
	C389.760193,269.966003 389.925018,284.267639 394.542877,298.521301 
M74.176498,277.359894 
	C75.225761,279.440582 76.087677,281.643738 77.354744,283.582062 
	C85.450256,295.966034 82.678413,308.994385 71.553139,317.020508 
	C66.116707,320.942474 65.945145,328.272339 70.278091,333.440948 
	C72.674065,336.298981 75.769508,338.246765 79.028572,339.980530 
	C88.235931,344.878601 98.241028,347.338379 108.253883,349.892395 
	C111.733421,350.779877 113.434471,349.961029 114.864159,346.821472 
	C121.135040,333.050690 121.911545,319.303009 115.257019,305.427551 
	C112.632576,299.955292 113.593849,294.831421 117.742599,291.392181 
	C121.873177,287.968048 127.916885,287.801849 132.092102,290.997528 
	C136.199265,294.141113 137.566895,299.798431 135.188370,304.988739 
	C127.446609,321.882477 130.159424,338.014313 138.580322,353.751770 
	C138.938431,354.420990 139.711426,355.251129 140.364258,355.320740 
	C147.201767,356.049805 153.978745,357.637878 160.868729,357.511749 
	C161.322159,355.127533 160.097870,353.792755 159.508499,352.292267 
	C156.295319,344.112091 155.962952,335.635468 160.225754,328.111633 
	C170.857269,309.347015 172.949356,289.176086 172.105377,268.220917 
	C171.623169,256.248627 169.646561,244.808945 163.927307,234.092285 
	C160.644531,227.941086 160.749664,221.296814 162.786865,214.669724 
	C163.205627,213.307510 164.357117,212.037216 163.410782,210.191742 
	C162.452927,209.949951 161.352768,209.443817 160.245300,209.427338 
	C145.915558,209.214035 131.658691,207.974380 117.418938,206.483139 
	C114.689217,206.197266 113.714745,207.446167 113.180672,210.080536 
	C111.203857,219.831406 112.833420,228.866791 117.492027,237.586273 
	C120.587761,243.380539 119.475327,248.845276 115.008224,252.431351 
	C110.780144,255.825546 104.832184,255.869095 100.686501,252.536163 
	C96.122925,248.867264 94.813728,242.856735 98.199326,237.234329 
	C103.448639,228.516846 103.221207,219.121475 102.526680,209.606506 
	C102.309555,206.631866 101.160255,204.452652 97.374229,204.115280 
	C92.432365,203.674927 87.567406,202.385590 82.664574,201.487610 
	C79.850685,200.972229 78.070885,201.720795 78.318726,205.042969 
	C78.537354,207.973541 77.408562,210.576874 76.191734,213.160675 
	C66.380119,233.994446 66.270409,255.188934 74.176498,277.359894 
M207.959778,361.643982 
	C220.801224,361.756744 233.623962,363.560944 247.283905,362.596436 
	C237.813599,351.648834 235.054977,339.824341 241.479477,327.763306 
	C251.069778,309.759003 253.889053,290.784149 253.176285,270.795349 
	C252.720261,258.006104 251.256866,245.596863 244.898300,234.182129 
	C242.826599,230.463028 242.504822,226.310440 242.472946,222.079132 
	C242.443604,218.186600 244.148499,214.701630 244.864883,211.072601 
	C229.912094,211.072601 215.278183,211.072601 200.151962,211.072601 
	C203.067749,219.107132 203.445419,226.269287 200.465576,233.670090 
	C188.038025,264.535187 187.935928,295.206726 202.690765,325.431335 
	C208.058304,336.426453 208.368469,347.135101 201.689545,357.701874 
	C201.271988,358.362488 201.055923,359.150482 200.648026,360.109924 
	C202.827148,361.296539 204.952530,361.464874 207.959778,361.643982 
z"/>
<path fill="#000000" opacity="1.000000" stroke="none" 
	d="
M320.101593,109.196686 
	C294.762848,106.604164 269.848114,105.552589 244.838379,106.841553 
	C225.355530,107.845665 205.993118,109.460594 187.219345,115.223709 
	C181.941788,116.843803 176.823334,118.846191 172.432632,122.298347 
	C166.209595,127.191185 165.685944,132.025681 170.717148,138.090668 
	C176.183319,144.679993 183.693436,148.410751 190.989883,152.433105 
	C192.514984,153.273834 194.544846,153.566620 194.948318,155.612244 
	C194.239456,157.740112 192.455612,157.366989 191.093765,157.515778 
	C169.480164,159.877197 147.913055,160.518921 126.585831,155.170609 
	C122.215942,154.074753 118.033447,152.424103 114.211952,149.939560 
	C102.857712,142.557587 101.423843,129.146881 111.151680,119.750946 
	C119.662140,111.530853 130.430115,107.371872 141.378662,103.771431 
	C163.929489,96.355576 187.237259,92.887955 210.792343,90.561340 
	C227.385239,88.922409 244.028351,88.013039 260.644745,88.183624 
	C305.742371,88.646614 350.378418,92.967766 393.349548,107.868217 
	C413.491577,114.852577 432.369263,124.245842 447.958038,139.239792 
	C449.446442,140.671417 451.430725,141.845078 451.657593,145.245544 
	C410.495819,122.733521 366.059753,113.999123 320.101593,109.196686 
z"/>
<path fill="#000000" opacity="1.000000" stroke="none" 
	d="
M325.995880,139.198532 
	C312.658173,139.026581 299.851074,139.279251 287.293396,142.400833 
	C283.898926,143.244629 280.506134,144.204407 277.599457,146.259583 
	C273.769440,148.967575 273.449677,151.719666 276.905365,154.819962 
	C279.115387,156.802704 281.782501,158.275879 284.243866,159.978668 
	C285.186096,160.630447 286.411316,161.122589 286.173523,162.589951 
	C285.933197,164.072922 284.725922,164.202698 283.523743,164.309921 
	C273.864899,165.171371 264.235413,165.243408 254.716766,163.059921 
	C253.106979,162.690674 251.530670,162.065536 250.024582,161.372467 
	C241.916122,157.641052 240.847336,149.466125 247.771393,143.778152 
	C253.051132,139.440964 259.458923,137.416168 265.891754,135.696228 
	C290.485260,129.120667 315.533020,128.592422 340.733337,130.421402 
	C357.416260,131.632217 373.726227,134.640823 389.355164,140.765701 
	C396.993805,143.759247 404.210632,147.557816 410.407410,153.033646 
	C411.555237,154.047943 413.354767,154.783051 412.945770,157.638153 
	C385.634735,143.780579 356.451569,139.596481 325.995880,139.198532 
z"/>
<path fill="#000000" opacity="1.000000" stroke="none" 
	d="
M402.704529,254.994781 
	C399.634064,249.184372 400.360657,243.956680 404.188660,239.373032 
	C407.250244,235.707077 411.515961,234.288849 416.282501,235.161896 
	C422.412445,236.284714 426.542694,240.637955 427.267212,246.457870 
	C427.956146,251.991837 425.001251,257.562347 420.040375,260.081909 
	C415.227692,262.526215 409.081360,261.548889 404.822205,257.608307 
	C404.098694,256.938904 403.535370,256.096405 402.704529,254.994781 
z"/>
<path fill="#000000" opacity="1.000000" stroke="none" 
	d="
M227.755432,275.117859 
	C220.536240,274.697388 215.579712,271.251556 214.012741,265.883331 
	C212.412399,260.400787 214.380783,254.205673 218.695908,251.143997 
	C223.261536,247.904602 229.547958,247.746002 234.129776,250.874481 
	C238.487930,253.850220 240.538681,258.193512 239.881073,263.292908 
	C239.018600,269.980743 234.773560,273.834625 227.755432,275.117859 
z"/>
</svg>