<svg version="1.1" id="Layer_1" xmlns="http://www.w3.org/2000/svg" xmlns:xlink="http://www.w3.org/1999/xlink" x="0px" y="0px"
	 width="100%" viewBox="0 0 640 640" enable-background="new 0 0 640 640" xml:space="preserve">
<path fill="#000000" opacity="1.000000" stroke="none" 
	d="
M495.312805,368.397827 
	C476.009216,371.618622 457.023041,373.936371 438.023712,376.056244 
	C407.750977,379.433960 377.387299,381.834961 346.953033,383.209290 
	C316.152435,384.600098 285.332336,384.806732 254.519730,383.862671 
	C222.909851,382.894196 191.344986,381.173462 160.166992,375.337982 
	C148.527252,373.159363 137.069702,370.300568 126.316772,365.186127 
	C106.753471,355.881165 104.411537,342.225433 119.623100,326.748322 
	C123.930817,322.365417 128.813202,318.647369 133.805756,314.785309 
	C113.538719,305.300018 110.124352,295.356384 120.720612,275.877197 
	C127.804878,262.854126 128.466965,248.924759 128.067657,234.643585 
	C127.792305,224.795288 125.556946,215.673828 120.735947,206.976990 
	C116.594765,199.506500 118.252022,192.149246 123.428436,185.598923 
	C122.294373,182.882645 119.689468,182.140442 117.806557,180.623520 
	C109.017570,173.542892 107.228760,165.035812 113.177040,155.532227 
	C121.045456,142.960785 133.318771,135.435196 145.697571,128.123383 
	C146.098083,127.886795 146.670517,127.821678 147.145599,127.865067 
	C147.606171,127.907120 148.044556,128.192413 148.481903,128.366577 
	C149.270187,130.588654 147.506500,131.813873 146.657883,133.305908 
	C142.670792,140.315964 143.620987,145.857788 150.071793,150.811371 
	C158.310760,157.138046 168.046585,160.128464 177.907059,162.666870 
	C198.900986,168.071365 220.343643,170.664612 241.872787,172.760269 
	C307.120728,179.111511 372.565521,179.268143 438.016479,178.966766 
	C467.662079,178.830276 497.305664,178.143066 526.948669,177.621017 
	C533.103088,177.512650 539.248718,176.965317 545.403076,176.758270 
	C547.312927,176.694031 549.380493,176.170181 551.867004,178.112854 
	C545.218689,181.729141 537.832153,180.924820 531.464478,183.399323 
	C531.094482,185.617050 532.755859,186.879211 533.396240,188.516983 
	C535.875916,194.859131 535.754639,201.040665 533.459412,207.486404 
	C524.102234,233.764771 523.805115,259.925629 535.327026,285.710815 
	C539.308472,294.620911 539.786255,303.412994 535.176636,312.131317 
	C528.148438,325.424133 512.224243,326.186432 504.084015,313.541718 
	C498.245056,304.471680 498.665039,294.950714 503.193634,285.449249 
	C513.239380,264.372437 513.245605,242.325867 509.422211,219.957138 
	C508.868225,216.715942 507.754883,213.444519 506.258331,210.515091 
	C502.554871,203.265656 502.046875,195.931747 505.064575,187.593781 
	C494.672150,189.146301 484.814423,190.618942 474.320679,192.186615 
	C477.052734,200.544510 478.766052,208.322098 475.188934,216.095245 
	C471.962616,223.106110 469.882629,230.434326 468.859558,238.071899 
	C465.691589,261.721954 466.509491,284.840454 477.077545,306.912964 
	C483.499298,320.325470 481.416687,334.715881 472.414337,343.545441 
	C463.700348,352.092163 450.457550,351.346527 443.045319,341.623413 
	C435.535858,331.772797 434.450989,320.742889 439.088654,309.513367 
	C443.615570,298.552002 447.927765,287.629395 449.274017,275.731720 
	C449.970764,269.574097 449.571442,263.421478 449.633087,257.266449 
	C449.666565,253.924347 447.188171,254.307037 445.028320,254.305542 
	C433.363861,254.297470 421.697784,254.413589 410.035583,254.249176 
	C403.750671,254.160583 398.631012,251.489014 395.982819,245.555969 
	C393.496552,239.985870 394.022186,234.472946 397.856812,229.548096 
	C401.212372,225.238510 405.963196,223.900635 411.146393,223.857559 
	C420.310760,223.781372 429.476288,223.852936 438.640991,223.803680 
	C440.435028,223.794037 442.313568,224.143219 444.574707,222.771881 
	C441.429169,214.600174 437.747437,206.242630 441.961334,196.130478 
	C413.333252,199.355316 385.759369,201.515381 357.993500,203.273743 
	C357.827332,206.417389 359.482635,208.503403 359.953156,210.885010 
	C361.216675,217.280441 360.674072,223.425186 357.708374,229.332245 
	C350.852081,242.988480 349.917755,257.719788 349.923431,272.629272 
	C349.924713,275.972229 351.567383,276.895905 354.601318,276.864990 
	C363.765350,276.771484 372.933746,276.685577 382.094849,276.871979 
	C388.448700,277.001282 393.906799,279.240570 396.827179,285.382751 
	C399.485413,290.973572 398.957520,296.430756 395.201874,301.385559 
	C391.928894,305.703674 387.286774,307.286713 382.036926,307.306641 
	C373.570129,307.338806 365.103149,307.315277 356.396393,307.315277 
	C356.099213,311.891113 358.396332,315.106537 360.067719,318.355560 
	C367.257935,332.332764 366.654114,345.185425 355.263885,356.775482 
	C355.078217,356.964386 355.111542,357.368500 354.921722,358.205444 
	C388.142487,359.176788 421.249054,358.880310 454.339508,358.545563 
	C487.209412,358.213043 520.070923,357.046509 553.446655,356.233276 
	C550.437500,359.454895 518.161011,365.993164 495.312805,368.397827 
M189.392670,216.081161 
	C190.164642,221.745255 192.061935,226.978622 194.735794,232.058578 
	C197.826599,237.930756 195.980728,244.282562 190.821335,247.343613 
	C186.165375,250.106018 180.854843,249.585709 176.973358,245.986786 
	C173.035233,242.335342 171.820023,237.003342 174.893143,231.855301 
	C179.986649,223.322723 180.223984,214.171844 179.604919,204.784927 
	C179.369293,201.212143 178.338257,198.489395 173.829559,198.151443 
	C169.215927,197.805618 164.620926,196.803482 160.101669,195.734100 
	C156.453766,194.870911 155.104752,196.076981 155.318924,199.666962 
	C155.483124,202.419113 154.270248,204.814682 153.200150,207.270889 
	C142.705139,231.360168 142.159653,255.259460 154.931320,278.762329 
	C162.046921,291.856689 160.346664,301.196655 148.781784,310.788849 
	C143.470200,315.194397 142.838852,322.469452 147.345734,327.627167 
	C150.019455,330.687042 153.331055,332.922211 156.944672,334.689911 
	C165.819702,339.031433 175.306198,341.458191 184.835114,343.894623 
	C188.949646,344.946686 190.697952,343.472443 192.146576,340.233765 
	C198.170166,326.766998 198.800980,313.280762 192.287537,299.782196 
	C189.600723,294.213989 190.514069,288.915924 194.870102,285.347839 
	C199.018463,281.949860 204.924591,281.897675 209.202866,285.221222 
	C213.311600,288.413086 214.589661,293.894287 212.128708,299.227386 
	C204.321503,316.146271 207.441208,332.250061 215.562302,348.014496 
	C215.842194,348.557800 216.435135,349.272461 216.936600,349.318817 
	C223.928070,349.965637 230.823441,351.996552 238.389099,351.331238 
	C237.973618,350.021027 237.817932,349.223114 237.480255,348.511597 
	C232.866348,338.789368 233.390442,329.272247 238.272263,319.765259 
	C240.395935,315.629608 242.097839,311.272705 243.903000,306.979126 
	C249.206390,294.365143 249.098221,281.035522 249.182922,267.696320 
	C249.267273,254.410583 247.911224,241.467606 241.523956,229.522217 
	C239.259033,225.286362 238.542679,220.828598 238.514481,216.055984 
	C238.491226,212.116562 240.282623,208.679779 240.973099,204.938446 
	C240.361221,204.617508 239.950623,204.231842 239.511917,204.196671 
	C224.099533,202.961288 208.685989,201.738968 193.268082,200.574753 
	C191.126770,200.413071 190.544739,201.915436 190.262787,203.775421 
	C189.688065,207.566528 189.106537,211.345551 189.392670,216.081161 
M302.481659,204.958633 
	C294.223969,204.958633 285.966248,204.958633 276.902374,204.958633 
	C281.788788,215.697006 278.974213,224.886139 274.701355,234.319214 
	C268.567780,247.860077 269.348633,262.505646 269.095215,277.002289 
	C268.834625,291.907471 272.659698,305.579590 279.325500,318.673676 
	C281.367584,322.685089 282.930756,326.798645 283.466553,331.381866 
	C284.440033,339.708832 282.081940,347.093567 276.881714,354.819702 
	C293.418823,356.464844 308.938934,356.665558 324.910309,357.247406 
	C314.812347,345.714905 312.139679,333.725769 318.234253,322.310364 
	C327.955719,304.101624 331.141205,284.857147 330.192108,264.485138 
	C329.588654,251.533066 327.868805,239.060501 321.604553,227.451035 
	C318.636993,221.951340 318.826965,215.946793 320.403564,209.964172 
	C320.809967,208.422028 322.020477,206.974884 321.112732,204.956177 
	C315.288971,204.956177 309.380737,204.956177 302.481659,204.958633 
z"/>
<path fill="#000000" opacity="1.000000" stroke="none" 
	d="
M486.502319,108.420334 
	C502.754211,115.672218 517.354980,124.611015 529.072937,137.684570 
	C527.670898,139.640533 526.594421,138.657928 525.707825,138.143127 
	C501.932648,124.338097 475.897125,116.965935 449.281616,111.247200 
	C420.413055,105.044357 391.184906,102.049683 361.698547,100.856087 
	C331.314545,99.626144 301.151123,100.684006 271.367493,107.311440 
	C264.036957,108.942627 256.837769,111.147171 250.589005,115.506851 
	C242.924561,120.854240 242.263046,126.579323 248.629181,133.409546 
	C253.931183,139.098038 260.781281,142.648666 267.554749,146.262543 
	C269.205872,147.143448 271.519073,147.390808 271.904114,149.887955 
	C271.030396,151.835541 269.083679,151.668610 267.590302,151.804764 
	C246.144836,153.759872 224.717834,154.690094 203.573853,149.249725 
	C198.890106,148.044586 194.362076,146.338211 190.378235,143.461990 
	C179.259857,135.434860 178.700958,121.934708 189.250336,112.784210 
	C199.457520,103.930542 211.951904,99.608459 224.588226,95.891640 
	C245.546478,89.727028 267.086761,86.748207 288.795258,84.550194 
	C312.899353,82.109627 337.064880,81.894386 361.161407,82.975723 
	C404.061646,84.900879 446.268768,91.061089 486.502319,108.420334 
z"/>
<path fill="#000000" opacity="1.000000" stroke="none" 
	d="
M241.801376,467.978882 
	C252.597137,447.082825 276.070312,440.364288 290.934540,442.045776 
	C316.815369,444.973480 332.174988,458.442291 338.110016,481.964569 
	C343.361298,502.777039 340.701660,522.519348 325.976959,538.472839 
	C311.347290,554.323425 292.206696,557.282837 271.726410,551.836731 
	C251.101929,546.352295 240.326706,531.897034 235.759415,511.850769 
	C232.279236,496.575928 235.083038,482.205383 241.801376,467.978882 
M260.330231,489.800659 
	C258.175629,499.787689 259.601593,509.394928 263.995697,518.467468 
	C268.736023,528.254822 276.964722,533.004639 287.725220,533.035156 
	C298.713837,533.066345 307.087097,528.251526 311.699097,518.128418 
	C317.365234,505.691376 317.529053,492.939270 312.145630,480.353973 
	C306.330780,466.760193 291.277832,460.610413 277.613586,466.022156 
	C267.221680,470.137878 262.745239,478.765106 260.330231,489.800659 
z"/>
<path fill="#000000" opacity="1.000000" stroke="none" 
	d="
M462.151367,444.878601 
	C486.221008,436.469147 511.903381,447.222076 522.454224,463.582031 
	C538.734741,488.826202 535.572327,522.389160 516.253296,540.868713 
	C492.340607,563.742188 439.072449,558.910522 428.815277,514.609619 
	C424.226379,494.790039 427.323547,476.640320 439.421173,460.239502 
	C445.041718,452.619720 452.941620,448.061188 462.151367,444.878601 
M490.239655,466.123993 
	C474.642914,461.274658 461.581238,466.378632 455.720367,480.122894 
	C450.684967,491.931274 450.524017,504.083832 455.310669,516.044556 
	C459.927246,527.580261 469.484711,533.614441 481.413483,533.028748 
	C493.435852,532.438354 502.123962,525.589417 505.977020,513.793701 
	C509.342224,503.491486 509.217041,493.253906 505.756714,483.007111 
	C503.174377,475.360168 498.396149,469.705963 490.239655,466.123993 
z"/>
<path fill="#000000" opacity="1.000000" stroke="none" 
	d="
M189.970520,486.648254 
	C201.677048,486.650146 201.675385,486.650146 201.675827,475.241638 
	C201.676086,468.578552 201.576782,461.913269 201.713638,455.252899 
	C201.880539,447.130646 206.826630,442.176544 214.405212,442.280518 
	C221.641983,442.379822 226.255722,447.330048 226.276520,455.478546 
	C226.349670,484.129730 226.350906,512.781250 226.286987,541.432495 
	C226.268997,549.492065 222.010803,553.794495 214.468445,553.824219 
	C206.124557,553.857117 201.807434,549.699402 201.710678,541.275085 
	C201.607391,532.281006 201.553589,523.282349 201.737732,514.291016 
	C201.811203,510.704498 200.788330,509.231079 196.959503,509.289215 
	C184.635620,509.476349 172.305328,509.473053 159.981369,509.286896 
	C156.174286,509.229431 155.092804,510.678406 155.164536,514.276367 
	C155.340469,523.101379 155.348343,531.935242 155.168213,540.760315 
	C154.965942,550.669800 149.546951,555.039368 139.892944,553.399536 
	C133.842682,552.371826 130.899414,548.304504 130.865387,540.475403 
	C130.795898,524.484192 130.839203,508.492523 130.837830,492.501068 
	C130.836792,480.340912 130.698685,468.178619 130.884567,456.021301 
	C131.025421,446.809204 135.827408,442.004822 143.841446,442.483948 
	C149.563293,442.826080 153.096725,445.626373 154.387787,451.337067 
	C156.209213,459.393616 155.032013,467.598419 155.176422,475.732819 
	C155.370102,486.645172 155.217056,486.647919 165.989319,486.648102 
	C173.818512,486.648224 181.647720,486.648315 189.970520,486.648254 
z"/>
<path fill="#000000" opacity="1.000000" stroke="none" 
	d="
M393.518188,527.494751 
	C398.063324,519.659729 397.098297,516.121521 389.522339,511.880463 
	C384.990448,509.343536 380.096802,507.701996 375.138031,506.250763 
	C370.807953,504.983551 366.670990,503.255859 362.661591,501.203461 
	C342.408905,490.836304 339.547852,465.913849 357.012665,451.095398 
	C371.024292,439.206787 393.662567,439.331665 408.297607,447.648468 
	C413.998047,450.887909 415.785583,457.012451 413.346954,462.741211 
	C411.026367,468.192657 406.394531,470.128815 399.666779,468.664948 
	C394.166077,467.468079 388.952728,464.950897 383.118530,465.232635 
	C380.567078,465.355896 378.152771,465.770813 375.925079,467.000610 
	C370.279083,470.117615 369.942627,475.639099 375.202881,479.304657 
	C378.800751,481.811798 382.897156,483.263092 387.074860,484.425964 
	C393.528076,486.222229 399.682526,488.717529 405.502258,492.016235 
	C416.266907,498.117920 423.428650,507.022186 422.882538,519.699280 
	C422.246674,534.460144 415.496155,545.957153 400.738159,551.046997 
	C385.512787,556.298096 370.212128,555.331055 355.217590,550.059570 
	C347.426636,547.320496 343.795105,541.067871 345.382935,534.805420 
	C346.931427,528.698120 350.771301,525.939148 357.089478,526.431580 
	C362.126892,526.824341 366.764282,528.764587 371.549194,530.158813 
	C379.086456,532.355164 386.588806,533.597107 393.518188,527.494751 
z"/>
<path fill="#000000" opacity="1.000000" stroke="none" 
	d="
M432.909454,135.274963 
	C409.897339,132.554092 387.357819,131.690704 364.923157,136.333282 
	C361.184875,137.106888 357.479492,138.183517 354.339050,140.546463 
	C350.985443,143.069824 350.579254,145.781830 353.755676,148.822830 
	C355.945984,150.919800 358.445496,152.529984 361.068390,154.002899 
	C362.196716,154.636505 363.609070,155.236084 363.148651,156.966293 
	C362.749634,158.465881 361.383087,158.210403 360.263824,158.346237 
	C350.947235,159.476883 341.668213,159.400604 332.485992,157.279800 
	C330.557526,156.834396 328.644318,156.158890 326.851624,155.317642 
	C318.848816,151.562149 317.932587,143.163696 325.019348,137.751862 
	C332.217621,132.254898 340.783356,129.814011 349.440277,128.162689 
	C387.969208,120.813278 426.184753,121.373451 463.723083,133.877472 
	C472.293274,136.732208 480.246368,140.968567 487.082611,147.022629 
	C488.226166,148.035324 490.004211,148.744843 489.562653,151.567398 
	C471.790710,142.262238 452.866241,137.728226 432.909454,135.274963 
z"/>
<path fill="#000000" opacity="1.000000" stroke="none" 
	d="
M493.569672,255.260422 
	C484.549774,255.356369 479.635345,251.889938 478.027893,244.636475 
	C476.793793,239.067871 480.119843,232.719391 485.561707,230.256607 
	C492.789764,226.985474 500.610565,230.283951 503.523590,237.832092 
	C506.337769,245.124084 502.462006,252.197205 493.569672,255.260422 
z"/>
<path fill="#000000" opacity="1.000000" stroke="none" 
	d="
M303.928833,242.708252 
	C310.823212,243.414368 315.103546,246.639496 316.628204,253.184326 
	C317.751007,258.004272 315.886993,263.561401 311.896729,266.445343 
	C307.132843,269.888428 302.118744,270.297607 296.950256,267.338104 
	C291.970825,264.486877 289.588440,258.784698 290.814911,252.735703 
	C291.950104,247.136536 296.588074,243.470474 303.928833,242.708252 
z"/>
</svg>